# Blender v2.81 (sub 16) OBJ File: 'Pool.blend'
# www.blender.org
mtllib pool.mtl
o Cube_Cube.001
v -18.199999 -5.855007 18.199999
v -18.199999 9.544994 18.199999
v -18.199999 -5.855007 -18.199999
v -18.199999 9.544994 -18.199999
v 18.199999 -5.855007 18.199999
v 18.199999 9.544994 18.199999
v 18.199999 -5.855007 -18.199999
v 18.199999 9.544994 -18.199999
v -25.086937 9.544994 25.086937
v -25.086937 9.544994 -25.086937
v 25.086937 9.544994 25.086937
v 25.086937 9.544994 -25.086937
vt 1.751909 -0.398806
vt -0.751909 0.949403
vt -0.751909 -0.398806
vt 1.751909 -0.398806
vt -0.751909 0.949403
vt -0.751909 -0.398806
vt -0.751909 -0.398806
vt 1.751909 0.949403
vt 1.751909 0.949403
vt 1.751909 -0.398806
vt -0.751909 -0.751909
vt 1.751909 1.751909
vt -0.751909 1.751909
vt 1.751909 -0.751909
vt 2.225635 2.225635
vt 1.751909 1.751909
vt -0.751909 1.751909
vt -1.225635 -1.225635
vt -0.751909 -0.751909
vt 2.225635 -1.225635
vt -1.225635 2.225635
vt 1.751909 0.949403
vt -0.751909 0.949403
vt 1.751909 -0.751909
vn 1.0000 0.0000 0.0000
vn 0.0000 0.0000 1.0000
vn -1.0000 0.0000 0.0000
vn 0.0000 0.0000 -1.0000
vn 0.0000 1.0000 0.0000
usemtl PoolMaterial
s off
f 3/1/1 2/2/1 1/3/1
f 7/4/2 4/5/2 3/6/2
f 5/7/3 8/8/3 7/4/3
f 1/3/4 6/9/4 5/10/4
f 1/11/5 7/12/5 3/13/5
f 6/14/5 12/15/5 8/16/5
f 4/17/5 9/18/5 2/19/5
f 2/19/5 11/20/5 6/14/5
f 8/16/5 10/21/5 4/17/5
f 3/1/1 4/22/1 2/2/1
f 7/4/2 8/8/2 4/5/2
f 5/7/3 6/23/3 8/8/3
f 1/3/4 2/2/4 6/9/4
f 1/11/5 5/24/5 7/12/5
f 6/14/5 11/20/5 12/15/5
f 4/17/5 10/21/5 9/18/5
f 2/19/5 9/18/5 11/20/5
f 8/16/5 12/15/5 10/21/5
