# Blender v2.81 (sub 16) OBJ File: ''
# www.blender.org
mtllib thruster.mtl
o Circle
v -0.923880 -0.795648 -0.382683
v -0.980785 -0.795648 -0.195090
v -0.980785 0.432728 -0.195090
v 0.707107 -0.795648 0.707106
v 0.831470 -0.795648 0.555570
v 0.831470 0.432728 0.555570
v -1.000000 -0.795648 -0.000000
v -1.000000 0.432728 0.000000
v 0.923880 -0.795648 0.382683
v 0.923880 0.432728 0.382683
v -0.980785 -0.795648 0.195090
v -0.980785 0.432728 0.195090
v 0.980785 -0.795648 0.195089
v 0.980785 0.432728 0.195089
v -0.923880 -0.795648 0.382683
v -0.923880 0.432728 0.382683
v 1.000000 -0.795648 -0.000001
v 1.000000 0.432728 -0.000001
v -0.831470 -0.795648 0.555570
v -0.831470 0.432728 0.555570
v 0.980785 -0.795648 -0.195091
v 0.980785 0.432728 -0.195091
v -0.707107 -0.795648 0.707107
v -0.707107 0.432728 0.707107
v 0.923879 -0.795648 -0.382684
v 0.923879 0.432728 -0.382684
v -0.555570 -0.795648 0.831470
v -0.555570 0.432728 0.831470
v 0.831469 -0.795648 -0.555571
v 0.831469 0.432728 -0.555571
v -0.382683 -0.795648 0.923880
v -0.382683 0.432728 0.923880
v 0.000000 -0.795648 -1.000000
v -0.195090 -0.795648 -0.980785
v -0.195090 0.432728 -0.980785
v 0.707106 -0.795648 -0.707108
v 0.707106 0.432728 -0.707108
v -0.195090 -0.795648 0.980785
v -0.195090 0.432728 0.980785
v -0.382683 -0.795648 -0.923880
v -0.382683 0.432728 -0.923880
v 0.555569 -0.795648 -0.831470
v 0.555569 0.432728 -0.831470
v 0.000000 -0.795648 1.000000
v 0.000000 0.432728 1.000000
v -0.555570 -0.795648 -0.831470
v -0.555570 0.432728 -0.831470
v 0.382682 -0.795648 -0.923880
v 0.382682 0.432728 -0.923880
v 0.195091 -0.795648 0.980785
v 0.195091 0.432728 0.980785
v -0.707107 -0.795648 -0.707107
v -0.707107 0.432728 -0.707107
v 0.195089 -0.795648 -0.980786
v 0.195089 0.432728 -0.980786
v 0.382684 -0.795648 0.923879
v 0.382684 0.432728 0.923879
v -0.831470 -0.795648 -0.555570
v -0.831470 0.432728 -0.555570
v 0.000000 0.432728 -1.000000
v 0.555571 -0.795648 0.831469
v 0.555571 0.432728 0.831469
v -0.923880 0.432728 -0.382683
v 0.707107 0.432728 0.707106
v -0.082162 1.535057 0.413055
v -0.161166 1.535057 -0.389090
v 0.233977 1.535057 -0.350172
v 0.000000 1.535057 0.421147
v -0.233977 1.535057 -0.350172
v 0.161166 1.535057 -0.389090
v 0.082162 1.535057 0.413055
v -0.297796 1.535057 -0.297797
v 0.082161 1.535057 -0.413056
v 0.161166 1.535057 0.389089
v -0.350172 1.535057 -0.233977
v 0.000000 1.535057 -0.421148
v 0.233977 1.535057 0.350171
v -0.389090 1.535057 -0.161166
v 0.297796 1.535057 0.297796
v -0.413055 1.535057 -0.082162
v 0.350172 1.535057 0.233977
v -0.421148 1.535057 0.000000
v 0.389090 1.535057 0.161166
v -0.413055 1.535057 0.082162
v 0.413055 1.535057 0.082161
v -0.389090 1.535057 0.161166
v 0.421148 1.535057 -0.000001
v -0.350172 1.535057 0.233977
v 0.413055 1.535057 -0.082162
v -0.297796 1.535057 0.297796
v 0.389089 1.535057 -0.161167
v -0.233977 1.535057 0.350171
v 0.350171 1.535057 -0.233978
v -0.161166 1.535057 0.389090
v -0.082162 1.535057 -0.413056
v 0.297796 1.535057 -0.297797
vt 0.011561 0.404486
vt 0.006814 0.436918
vt 0.186905 0.453000
vt 0.071654 0.878283
vt 0.087539 0.909458
vt 0.268090 0.817092
vt 0.003287 0.469759
vt 0.184915 0.478706
vt 0.103994 0.940105
vt 0.284480 0.842652
vt 0.001024 0.502978
vt 0.183985 0.504589
vt 0.120862 0.970333
vt 0.302690 0.868289
vt 0.000068 0.536539
vt 0.184144 0.530616
vt 0.137772 0.999932
vt 0.323244 0.893969
vt 0.000461 0.570402
vt 0.185422 0.556753
vt 0.179735 0.000068
vt 0.163335 0.026468
vt 0.323893 0.123802
vt 0.002245 0.604526
vt 0.187850 0.582967
vt 0.147230 0.052986
vt 0.306107 0.145573
vt 0.005458 0.638865
vt 0.191464 0.609224
vt 0.131559 0.079753
vt 0.289922 0.167449
vt 0.010138 0.673369
vt 0.196298 0.635489
vt 0.063228 0.219830
vt 0.052071 0.249339
vt 0.219675 0.304115
vt 0.116441 0.106864
vt 0.275176 0.189502
vt 0.016316 0.707987
vt 0.202390 0.661729
vt 0.041877 0.279370
vt 0.211840 0.328154
vt 0.101972 0.134386
vt 0.261747 0.211787
vt 0.024020 0.742665
vt 0.209783 0.687911
vt 0.032685 0.309915
vt 0.204931 0.352539
vt 0.088235 0.162368
vt 0.249542 0.234353
vt 0.033273 0.777346
vt 0.218522 0.714004
vt 0.024541 0.340962
vt 0.198962 0.377242
vt 0.075300 0.190843
vt 0.238494 0.257242
vt 0.044088 0.811975
vt 0.228659 0.739983
vt 0.017485 0.372493
vt 0.193953 0.402238
vt 0.228550 0.280486
vt 0.056468 0.846495
vt 0.240254 0.765823
vt 0.189926 0.427501
vt 0.253378 0.791508
vt 0.384889 0.601533
vt 0.388632 0.374240
vt 0.415349 0.304962
vt 0.389984 0.617744
vt 0.384117 0.391693
vt 0.408393 0.317698
vt 0.395895 0.633507
vt 0.380237 0.409289
vt 0.402203 0.331056
vt 0.402622 0.648749
vt 0.377015 0.426992
vt 0.396820 0.344972
vt 0.410163 0.663392
vt 0.374471 0.444768
vt 0.418508 0.677347
vt 0.372626 0.462581
vt 0.427643 0.690515
vt 0.371496 0.480394
vt 0.437538 0.702780
vt 0.371098 0.498168
vt 0.448149 0.714003
vt 0.371450 0.515861
vt 0.459412 0.724020
vt 0.372563 0.533432
vt 0.343283 0.101806
vt 0.449695 0.261940
vt 0.374453 0.550834
vt 0.440274 0.271304
vt 0.377131 0.568020
vt 0.431353 0.281672
vt 0.380607 0.584938
vt 0.392285 0.359384
vt 0.423021 0.292925
vt 0.459412 0.253788
vn -0.6725 -0.6857 -0.2785
vn -0.7139 -0.6857 -0.1420
vn -0.9531 0.2360 -0.1896
vn 0.5147 -0.6857 0.5147
vn 0.6052 -0.6857 0.4044
vn 0.8080 0.2360 0.5399
vn -0.7279 -0.6857 -0.0000
vn -0.9717 0.2360 0.0000
vn 0.6725 -0.6857 0.2785
vn 0.8978 0.2360 0.3719
vn -0.7139 -0.6857 0.1420
vn -0.9531 0.2360 0.1896
vn 0.7139 -0.6857 0.1420
vn 0.9531 0.2360 0.1896
vn -0.6725 -0.6857 0.2785
vn -0.8978 0.2360 0.3719
vn 0.7279 -0.6857 -0.0000
vn 0.9717 0.2360 0.0000
vn -0.6052 -0.6857 0.4044
vn -0.8080 0.2360 0.5399
vn 0.7139 -0.6857 -0.1420
vn 0.9531 0.2360 -0.1896
vn -0.5147 -0.6857 0.5147
vn -0.6871 0.2360 0.6871
vn 0.6725 -0.6857 -0.2786
vn 0.8978 0.2360 -0.3719
vn -0.4044 -0.6857 0.6052
vn -0.5399 0.2360 0.8080
vn 0.6052 -0.6857 -0.4044
vn 0.8080 0.2360 -0.5399
vn -0.2785 -0.6857 0.6725
vn -0.3719 0.2360 0.8978
vn -0.0000 -0.6857 -0.7279
vn -0.1420 -0.6857 -0.7139
vn -0.1896 0.2360 -0.9531
vn 0.5147 -0.6857 -0.5147
vn 0.6871 0.2360 -0.6871
vn -0.1420 -0.6857 0.7139
vn -0.1896 0.2360 0.9531
vn -0.2785 -0.6857 -0.6725
vn -0.3719 0.2360 -0.8978
vn 0.4044 -0.6857 -0.6052
vn 0.5399 0.2360 -0.8080
vn -0.0000 -0.6857 0.7279
vn -0.0000 0.2360 0.9717
vn -0.4044 -0.6857 -0.6052
vn -0.5399 0.2360 -0.8080
vn 0.2786 -0.6857 -0.6725
vn 0.3719 0.2360 -0.8978
vn 0.1420 -0.6857 0.7139
vn 0.1896 0.2360 0.9531
vn -0.5147 -0.6857 -0.5147
vn -0.6871 0.2360 -0.6871
vn 0.1420 -0.6857 -0.7139
vn 0.1896 0.2360 -0.9531
vn 0.2786 -0.6857 0.6725
vn 0.3719 0.2360 0.8978
vn -0.6052 -0.6857 -0.4044
vn -0.8080 0.2360 -0.5399
vn -0.0000 0.2360 -0.9717
vn 0.4044 -0.6857 0.6052
vn 0.5399 0.2360 0.8080
vn -0.8978 0.2360 -0.3719
vn 0.6871 0.2360 0.6871
vn -0.1054 0.8416 0.5298
vn -0.2067 0.8416 -0.4990
vn 0.3001 0.8416 -0.4491
vn -0.0000 0.8416 0.5401
vn -0.3001 0.8416 -0.4491
vn 0.2067 0.8416 -0.4990
vn 0.1054 0.8416 0.5298
vn -0.3819 0.8416 -0.3819
vn 0.1054 0.8416 -0.5298
vn 0.2067 0.8416 0.4990
vn -0.4491 0.8416 -0.3001
vn 0.0000 0.8416 -0.5401
vn 0.3001 0.8416 0.4491
vn -0.4990 0.8416 -0.2067
vn 0.3819 0.8416 0.3819
vn -0.5298 0.8416 -0.1054
vn 0.4491 0.8416 0.3001
vn -0.5401 0.8416 0.0000
vn 0.4990 0.8416 0.2067
vn -0.5298 0.8416 0.1054
vn 0.5298 0.8416 0.1054
vn -0.4990 0.8416 0.2067
vn 0.5401 0.8416 -0.0000
vn -0.4491 0.8416 0.3001
vn 0.5298 0.8416 -0.1054
vn -0.3819 0.8416 0.3819
vn 0.4990 0.8416 -0.2067
vn -0.3001 0.8416 0.4491
vn 0.4491 0.8416 -0.3001
vn -0.2067 0.8416 0.4990
vn -0.1054 0.8416 -0.5298
vn 0.3819 0.8416 -0.3819
usemtl None
s 1
f 1/1/1 2/2/2 3/3/3
f 4/4/4 5/5/5 6/6/6
f 2/2/2 7/7/7 8/8/8
f 5/5/5 9/9/9 10/10/10
f 7/7/7 11/11/11 12/12/12
f 9/9/9 13/13/13 14/14/14
f 11/11/11 15/15/15 16/16/16
f 13/13/13 17/17/17 18/18/18
f 15/15/15 19/19/19 20/20/20
f 17/21/17 21/22/21 22/23/22
f 19/19/19 23/24/23 24/25/24
f 21/22/21 25/26/25 26/27/26
f 23/24/23 27/28/27 28/29/28
f 25/26/25 29/30/29 30/31/30
f 27/28/27 31/32/31 32/33/32
f 33/34/33 34/35/34 35/36/35
f 29/30/29 36/37/36 37/38/37
f 31/32/31 38/39/38 39/40/39
f 34/35/34 40/41/40 41/42/41
f 36/37/36 42/43/42 43/44/43
f 38/39/38 44/45/44 45/46/45
f 40/41/40 46/47/46 47/48/47
f 42/43/42 48/49/48 49/50/49
f 44/45/44 50/51/50 51/52/51
f 46/47/46 52/53/52 53/54/53
f 48/49/48 54/55/54 55/56/55
f 50/51/50 56/57/56 57/58/57
f 52/53/52 58/59/58 59/60/59
f 54/55/54 33/34/33 60/61/60
f 56/57/56 61/62/61 62/63/62
f 58/59/58 1/1/1 63/64/63
f 61/62/61 4/4/4 64/65/64
f 32/33/32 39/40/39 65/66/65
f 35/36/35 41/42/41 66/67/66
f 37/38/37 43/44/43 67/68/67
f 39/40/39 45/46/45 68/69/68
f 41/42/41 47/48/47 69/70/69
f 49/50/49 70/71/70 67/68/67
f 45/46/45 51/52/51 71/72/71
f 47/48/47 53/54/53 72/73/72
f 49/50/49 55/56/55 73/74/73
f 51/52/51 57/58/57 74/75/74
f 53/54/53 59/60/59 75/76/75
f 55/56/55 60/61/60 76/77/76
f 57/58/57 62/63/62 77/78/77
f 59/60/59 63/64/63 78/79/78
f 62/63/62 64/65/64 79/80/79
f 63/64/63 3/3/3 80/81/80
f 64/65/64 6/6/6 81/82/81
f 3/3/3 8/8/8 82/83/82
f 6/6/6 10/10/10 83/84/83
f 8/8/8 12/12/12 84/85/84
f 14/14/14 85/86/85 83/84/83
f 12/12/12 16/16/16 86/87/86
f 14/14/14 18/18/18 87/88/87
f 16/16/16 20/20/20 88/89/88
f 18/90/18 22/23/22 89/91/89
f 20/20/20 24/25/24 90/92/90
f 22/23/22 26/27/26 91/93/91
f 24/25/24 28/29/28 92/94/92
f 26/27/26 30/31/30 93/95/93
f 32/33/32 94/96/94 92/94/92
f 35/36/35 95/97/95 76/77/76
f 30/31/30 37/38/37 96/98/96
f 78/79/78 74/75/74 66/67/66
f 33/34/33 44/45/44 7/7/7
f 1/1/1 3/3/3 63/64/63
f 4/4/4 6/6/6 64/65/64
f 2/2/2 8/8/8 3/3/3
f 5/5/5 10/10/10 6/6/6
f 7/7/7 12/12/12 8/8/8
f 9/9/9 14/14/14 10/10/10
f 11/11/11 16/16/16 12/12/12
f 13/13/13 18/18/18 14/14/14
f 15/15/15 20/20/20 16/16/16
f 17/21/17 22/23/22 18/90/18
f 19/19/19 24/25/24 20/20/20
f 21/22/21 26/27/26 22/23/22
f 23/24/23 28/29/28 24/25/24
f 25/26/25 30/31/30 26/27/26
f 27/28/27 32/33/32 28/29/28
f 33/34/33 35/36/35 60/61/60
f 29/30/29 37/38/37 30/31/30
f 31/32/31 39/40/39 32/33/32
f 34/35/34 41/42/41 35/36/35
f 36/37/36 43/44/43 37/38/37
f 38/39/38 45/46/45 39/40/39
f 40/41/40 47/48/47 41/42/41
f 42/43/42 49/50/49 43/44/43
f 44/45/44 51/52/51 45/46/45
f 46/47/46 53/54/53 47/48/47
f 48/49/48 55/56/55 49/50/49
f 50/51/50 57/58/57 51/52/51
f 52/53/52 59/60/59 53/54/53
f 54/55/54 60/61/60 55/56/55
f 56/57/56 62/63/62 57/58/57
f 58/59/58 63/64/63 59/60/59
f 61/62/61 64/65/64 62/63/62
f 32/33/32 65/66/65 94/96/94
f 35/36/35 66/67/66 95/97/95
f 37/38/37 67/68/67 96/98/96
f 39/40/39 68/69/68 65/66/65
f 41/42/41 69/70/69 66/67/66
f 49/50/49 67/68/67 43/44/43
f 45/46/45 71/72/71 68/69/68
f 47/48/47 72/73/72 69/70/69
f 49/50/49 73/74/73 70/71/70
f 51/52/51 74/75/74 71/72/71
f 53/54/53 75/76/75 72/73/72
f 55/56/55 76/77/76 73/74/73
f 57/58/57 77/78/77 74/75/74
f 59/60/59 78/79/78 75/76/75
f 62/63/62 79/80/79 77/78/77
f 63/64/63 80/81/80 78/79/78
f 64/65/64 81/82/81 79/80/79
f 3/3/3 82/83/82 80/81/80
f 6/6/6 83/84/83 81/82/81
f 8/8/8 84/85/84 82/83/82
f 14/14/14 83/84/83 10/10/10
f 12/12/12 86/87/86 84/85/84
f 14/14/14 87/88/87 85/86/85
f 16/16/16 88/89/88 86/87/86
f 18/90/18 89/91/89 87/99/87
f 20/20/20 90/92/90 88/89/88
f 22/23/22 91/93/91 89/91/89
f 24/25/24 92/94/92 90/92/90
f 26/27/26 93/95/93 91/93/91
f 32/33/32 92/94/92 28/29/28
f 35/36/35 76/77/76 60/61/60
f 30/31/30 96/98/96 93/95/93
f 66/67/66 70/71/70 95/97/95
f 95/97/95 70/71/70 76/77/76
f 76/77/76 70/71/70 73/74/73
f 70/71/70 96/98/96 67/68/67
f 96/98/96 91/93/91 93/95/93
f 91/93/91 87/88/87 89/91/89
f 87/88/87 91/93/91 85/86/85
f 85/86/85 91/93/91 83/84/83
f 83/84/83 74/75/74 81/82/81
f 81/82/81 74/75/74 79/80/79
f 79/80/79 74/75/74 77/78/77
f 74/75/74 68/69/68 71/72/71
f 68/69/68 74/75/74 65/66/65
f 65/66/65 74/75/74 94/96/94
f 94/96/94 86/87/86 92/94/92
f 92/94/92 86/87/86 90/92/90
f 90/92/90 86/87/86 88/89/88
f 86/87/86 82/83/82 84/85/84
f 82/83/82 78/79/78 80/81/80
f 78/79/78 72/73/72 75/76/75
f 72/73/72 66/67/66 69/70/69
f 70/71/70 91/93/91 96/98/96
f 86/87/86 78/79/78 82/83/82
f 78/79/78 66/67/66 72/73/72
f 66/67/66 74/75/74 70/71/70
f 70/71/70 74/75/74 91/93/91
f 91/93/91 74/75/74 83/84/83
f 74/75/74 86/87/86 94/96/94
f 86/87/86 74/75/74 78/79/78
f 33/34/33 52/53/52 34/35/34
f 34/35/34 52/53/52 40/41/40
f 40/41/40 52/53/52 46/47/46
f 52/53/52 1/1/1 58/59/58
f 1/1/1 52/53/52 2/2/2
f 2/2/2 52/53/52 7/7/7
f 7/7/7 15/15/15 11/11/11
f 15/15/15 23/24/23 19/19/19
f 23/24/23 31/32/31 27/28/27
f 31/32/31 23/24/23 38/39/38
f 38/39/38 23/24/23 44/45/44
f 44/45/44 56/57/56 50/51/50
f 56/57/56 4/4/4 61/62/61
f 4/4/4 9/9/9 5/5/5
f 9/9/9 4/4/4 13/13/13
f 13/13/13 4/4/4 17/17/17
f 17/17/17 25/26/25 21/22/21
f 25/26/25 36/37/36 29/30/29
f 36/37/36 48/49/48 42/43/42
f 48/49/48 36/37/36 54/55/54
f 54/55/54 36/37/36 33/34/33
f 7/7/7 44/45/44 15/15/15
f 15/15/15 44/45/44 23/24/23
f 44/45/44 17/17/17 56/57/56
f 56/57/56 17/17/17 4/4/4
f 17/17/17 36/37/36 25/26/25
f 33/34/33 7/7/7 52/53/52
f 17/17/17 44/45/44 36/37/36
f 36/37/36 44/45/44 33/34/33
